<svg height="960" viewBox="0 0 960 960" width="960" xmlns="http://www.w3.org/2000/svg"><path d="m333.938295 3.78268875 322.6 15.61889445c39.538294 1.9142729 70.611761 34.5285802 70.611761 74.1131873v768.6485695c0 39.319811-30.672762 71.812722-69.92733 74.076881l-322.6 18.607201c-1.422745.082062-2.84756.123119-4.27267.123119-40.979528 0-74.2-33.220472-74.2-74.2v-802.8746649c0-1.1966049.028946-2.3930346.086813-3.5882395 1.98173-40.9315831 36.769843-72.50667778 77.701426-70.52494785zm-4.235125 39.91858995-.506368.0122064c-17.624546.5751219-32.138991 14.6057747-33.006733 32.5285124-.026671.5508896-.040013 1.1023437-.040013 1.6538786v802.8746649c0 18.618068 14.877122 33.761399 33.392017 34.190643-12.013147-11.472367-19.49659-27.646377-19.49659-45.568238v-779.9702458c0-.8426692.016907-1.6852536.050711-2.5272446.685681-17.0791337 8.10927-32.2965789 19.606976-43.1941769zm.376925 43.9964768c-.023072.5746922-.034612 1.1497895-.034612 1.7249447v779.9702458c0 23.748245 19.251756 43 43 43 .736734 0 1.473347-.018934 2.209108-.056783l16.269465-.837882 263.395344-15.191688c18.093076-1.043588 32.230656-16.020105 32.230656-34.143253v-768.6485695c0-18.2451962-14.322272-33.2776667-32.546121-34.1599866l-219.273094-10.615446c-.565591.0754374-1.145416.1033266-1.735121.0796515l-58.825292-2.3616772c-23.729129-.9526607-43.737672 17.5113147-44.690333 41.2404433zm293.918963 403.3022235c5.522836 0 10.000942 4.477135 10.000942 9.99997v311.924899c0 10.087453-7.882963 18.41652-17.955151 18.971249l-210 11.565834c-.347953.019164-.696368.028751-1.044849.028751-10.49341 0-19.000942-8.50659-19.000942-18.999971v-323.490702c0-5.522859 4.477141-10.00003 10-10.00003zm-10 20h-208.001v312.434l208.001-11.456zm-208.136779-395.562251 210 9.54028c10.147649.461007 18.137721 8.822308 18.137721 18.980454v313.041548c0 5.522835-4.478106 9.999969-10.000942 9.999969h-228c-5.522859 0-10-4.47717-10-10.000029v-322.581798c0-.143765.002574-.287525.005837-.431251l.00322-.11345.006954-.204171.004508-.113407c.476223-10.482598 9.360103-18.594368 19.842702-18.118145zm.135779 20.026251v311.536h208.001v-302.086z"/></svg>