<?xml version="1.0" encoding="UTF-8"?>
<svg width="960" height="960" version="1.1" viewBox="0 0 960 960" xmlns="http://www.w3.org/2000/svg">
 <path d="m637.64 503.79v335.29c0 15.04-11.754 27.459-26.771 28.284l-226.62 12.473c-0.51845 0.0286-1.0376 0.0428-1.5568 0.0428-15.645 0-28.328-12.683-28.328-28.328v-743.26c0-0.17488 4e-3 -0.22619 7e-3 -0.4832l6e-3 -0.21412 7e-3 -0.21406 9e-3 -0.21404c0.66467-14.64 12.328-26.179 26.647-26.996l0.43054-0.01964 0.21299-0.01133 0.41402-0.0094 0.10914-0.0019 0.0382 3.96e-4 0.17204-0.0057h0.37713l0.33845 0.0076h0.0548l0.19672 0.0037 0.59234 0.02077 226.62 10.289c15.13 0.68691 27.043 13.153 27.043 28.299v337.84zm-37.77-15.108h-207.74v352.89l207.74-11.435zm-207.74-370.36v353.36h207.74v-343.92z" stroke-width="1.8885"/>
 <path d="m322.29 4.4503 322.6 15.619c39.538 1.9143 70.612 34.529 70.612 74.113v768.65c0 39.32-30.673 71.813-69.927 74.077l-322.6 18.607c-1.4228 0.082-2.8476 0.1232-4.2727 0.1232-40.98 0-74.2-33.22-74.2-74.2v-802.87c0-1.1966 0.0289-2.393 0.0868-3.5882 1.9817-40.932 36.77-72.507 77.701-70.525zm-4.2351 39.919-0.50637 0.0122c-17.625 0.57512-32.139 14.606-33.007 32.529-0.0267 0.55089-0.04 1.1024-0.04 1.6539v802.87c0 18.618 14.877 33.761 33.392 34.191-12.013-11.472-19.497-27.646-19.497-45.568v-779.97c0-0.84267 0.0169-1.6852 0.0507-2.5272 0.68568-17.079 8.1093-32.297 19.607-43.194zm0.37693 43.996c-0.0231 0.5747-0.0346 1.1498-0.0346 1.725v779.97c0 23.748 19.252 43 43 43 0.73674 0 1.4734-0.019 2.2091-0.057l16.269-0.8379 263.4-15.192c18.093-1.0436 32.231-16.02 32.231-34.143v-768.65c0-18.245-14.322-33.278-32.546-34.16l-219.27-10.615c-0.56559 0.0754-1.1454 0.10333-1.7351 0.0796l-58.825-2.3617c-23.729-0.95266-43.738 17.511-44.69 41.24z"/>
</svg>
