<?xml version="1.0" encoding="UTF-8"?>
<svg width="960" height="960" version="1.1" viewBox="0 0 960 960" xmlns="http://www.w3.org/2000/svg">
 <path d="m333.94 3.7827 322.6 15.619c39.538 1.9143 70.612 34.529 70.612 74.113v768.65c0 39.32-30.673 71.813-69.927 74.077l-322.6 18.607c-1.4228 0.0821-2.8476 0.12312-4.2727 0.12312-40.98 0-74.2-33.22-74.2-74.2v-802.87c0-1.1966 0.0289-2.393 0.0868-3.5882 1.9817-40.932 36.77-72.507 77.701-70.525zm-4.2351 39.919-0.50637 0.01221c-17.625 0.57512-32.139 14.606-33.007 32.529-0.0267 0.55089-0.04 1.1023-0.04 1.6539v802.87c0 18.618 14.877 33.761 33.392 34.191-12.013-11.472-19.497-27.646-19.497-45.568v-779.97c0-0.84267 0.0169-1.6853 0.0507-2.5272 0.68568-17.079 8.1093-32.297 19.607-43.194zm0.37693 43.996c-0.0231 0.57469-0.0346 1.1498-0.0346 1.7249v779.97c0 23.748 19.252 43 43 43 0.73674 0 1.4734-0.0189 2.2091-0.0568l16.269-0.83788 263.4-15.192c18.093-1.0436 32.231-16.02 32.231-34.143v-768.65c0-18.245-14.322-33.278-32.546-34.16l-219.27-10.615c-0.56559 0.07544-1.1454 0.10333-1.7351 0.07965l-58.825-2.3617c-23.729-0.95266-43.738 17.511-44.69 41.24zm303.92 584.83v141.35c0 10.088-7.8831 18.417-17.955 18.971l-211 11.619c-0.3479 0.0192-0.69626 0.0287-1.0447 0.0287-10.493 0-19-8.5066-19-19v-144.24c0-5.3747 4.2485-9.7882 9.6194-9.9928l229-8.723c5.668-0.2159 10.381 4.3206 10.381 9.9928zm-20 10.387-209 7.962v133.56l209-11.509zm-219.12-370.44 0.27844 6.9e-4 229 3.7424c5.4584 0.0892 9.8367 4.5395 9.8367 9.9987l5.4e-4 6.8017c0.5815 1.9 0.59195 3.9529-8.4e-4 5.8794l3e-4 287.93c0 5.3748-4.2485 9.7882-9.6194 9.9928l-229 8.723c-5.668 0.2159-10.381-4.3206-10.381-9.9928v-313.08c0-5.4936 4.426-9.9395 9.8849-10.001zm10.11 312.58 209.01-7.8514-9.4e-4 -281.18-209.01-3.3744m-0.136-219.2 211 9.5842c10.148 0.46094 18.138 8.8223 18.138 18.98v138.49c0 5.5867-4.5773 10.09-10.163 10l-229-3.7414c-5.4584-0.0892-9.8367-4.5395-9.8367-9.9987v-144.33c0-0.14375 0-0.28748 5e-3 -0.43119l3e-3 -0.11343 7e-3 -0.20414 5e-3 -0.11339c0.47615-10.483 9.36-18.594 19.843-18.118zm0.13785 20.027v133.45l209 3.413v-127.37z"/>
</svg>
