<?xml version="1.0" encoding="UTF-8"?>
<svg width="960" height="960" version="1.1" viewBox="0 0 960 960" xmlns="http://www.w3.org/2000/svg">
 <path d="m291.16 2.4241 0.35552 0.079949 0.49756-0.013707c1.3587-0.025247 2.7219 0.0036 4.087 0.087063l0.81923 0.056636 412 31.776c26.566 2.049 47.078 24.204 47.078 50.849v790.13c0 26.718-20.62 48.907-47.265 50.863l-412 30.251c-1.2428 0.0912-2.4885 0.13692-3.7346 0.13692-0.60449 0-1.208-0.0106-1.8103-0.0318l-0.1497-8e-3 -0.34822 0.0699c-2.8924 0.54595-5.967 0.45695-9.0444-0.40033l-0.38468-0.11117-42.319-12.673c-20.738-6.2096-34.944-25.292-34.944-46.94v-834.44c0-21.786 14.384-40.956 35.302-47.046l42.107-12.26c3.3263-0.9685 6.6524-1.0368 9.7536-0.37336zm-18.369 59.85c-0.0396 0.52541-0.0595 1.0521-0.0595 1.579v831.27c0 11.598 9.402 21 21 21 0.5017 0 1.0032-0.018 1.5036-0.0539l267.15-19.179 143.42-10.53c5.7471-0.42198 10.194-5.2078 10.194-10.97v-790.13c0-5.747-4.4241-10.525-10.154-10.967l-246.03-18.976-164.5-12.403c-11.565-0.87208-21.648 7.7964-22.52 19.362zm-18.415-9.9448-3.894 1.1337c-3.7547 1.0932-6.3633 4.4808-6.484 8.3691v834.71c0 3.9761 2.6092 7.4811 6.4182 8.6217l3.8653 1.1578c-1.0094-3.5611-1.5496-7.3193-1.5496-11.204v-831.27c0-1.0287 0.0387-2.0571 0.11607-3.0829 0.21999-2.9174 0.74016-5.7404 1.528-8.441zm159.4 170.12 174 8.8074c15.427 0.78086 27.534 13.516 27.534 28.963v436.53c0 15.338-11.944 28.024-27.254 28.947l-174 10.493c-0.5812 0.035-1.1633 0.0526-1.7456 0.0526-16.016 0-29-12.984-29-29v-455.83c0-0.48891 0.0124-0.97775 0.0371-1.466 0.80966-15.996 14.433-28.307 30.429-27.497zm-10.455 28.508c-8e-3 0.15154-0.0115 0.30325-0.0115 0.45498v455.83c0 4.9706 4.0294 9 9 9 0.1807 0 0.36136-5e-3 0.54173-0.0163l174-10.493c4.7515-0.28653 8.4583-4.2235 8.4583-8.9837v-436.53c0-4.7937-3.7574-8.7462-8.545-8.9885l-174-8.8074c-4.9642-0.25128-9.1922 3.5693-9.4435 8.5335zm176.99 241.04v177.54c0 7.964-6.2237 14.54-14.176 14.977l-120 6.6049c-0.27453 0.0151-0.54942 0.0227-0.82436 0.0227-8.2843 0-15-6.7157-15-15v-184.15-25-184.42c0-0.0926 2e-3 -0.11977 4e-3 -0.25586l3e-3 -0.11338 4e-3 -0.11335 5e-3 -0.11334c0.35195-7.752 6.528-13.862 14.11-14.295l0.22799-0.0104 0.11278-6e-3 0.21922-5e-3 0.0578-1e-3 0.0202 2.1e-4 0.0911-3e-3h0.1997l0.17921 4e-3h0.029l0.10417 2e-3 0.31365 0.011 120 5.4482c8.0115 0.36373 14.32 6.9648 14.32 14.985v178.89zm-20-8h-110v186.86l110-6.055zm-110-196.11v187.11h110v-182.11z"/>
</svg>
