<svg height="960" viewBox="0 0 960 960" width="960" xmlns="http://www.w3.org/2000/svg"><path d="m636.792765 7.61784095c13.741347 4.05497125 24.822221 8.13641135 33.647157 12.57140365 4.60877 2.3161481 9.144071 4.9039293 13.612175 7.7614636 16.94845 10.8436953 27.202724 29.5769152 27.202724 49.6981076v778.8298002c0 24.620967-15.041491 46.713933-37.882738 55.769196l-.216653.083507-.482065.189432c-88.043186 33.641492-166.110453 46.147264-234.327574 36.609572l-2.06417-.295769c-69.935356-10.264498-119.162832-24.783651-149.621943-45.793256-10.824813-7.466569-17.288248-19.776691-17.288248-32.926833v-806.7103039c0-21.2361338 16.594791-38.7707307 37.798744-39.939385l316.100257-17.42184171c4.564322-.25156228 9.137994.2811198 13.522334 1.57490656zm-327.421288 67.11574765-.000047 795.3808764c24.143691 16.653455 68.383295 29.701484 132.718809 39.144087 61.196644 8.981907 133.298578-2.385759 216.305804-34.102999 7.743162-2.960688 12.858778-10.3908 12.858778-18.680688v-778.8260491l-.001136-.1827103c-3.919384 2.5563777-8.325836 4.7346997-12.282722 6.1492632-6.912293 2.4711038-27.860765 6.1895114-54.357484 9.0960883-36.934395 4.0515452-81.892865 6.4330117-133.930734 6.4330117-74.955852 0-128.562292-7.9639295-161.311268-24.4108802zm354.58498 88.5028784v210.998733c0 3.594916-1.92961 6.913193-5.054033 8.691227-32.235436 18.344405-70.279861 28.980496-114.044845 31.993011-43.215037 2.97466-98.825761 3.014967-166.916782.136985-5.353816-.226288-9.57771-4.632483-9.57771-9.991079v-224.34138c0-5.727664 4.801493-10.285021 10.521367-9.9864 64.52879 3.3689 117.000484 5.052222 157.373132 5.052222 38.857047 0 76.852954-7.280191 114.04874-21.863343 6.559257-2.571653 13.650131 2.264653 13.650131 9.310024zm-20.00037 14.34-.169735.059386c-35.109858 12.098095-70.967123 18.153933-107.528766 18.153933-38.321737 0-87.275112-1.496689-146.873329-4.488291l-1.02117-.051028v204.212l.440166.017516c62.191085 2.406741 113.334794 2.26125 153.405795-.426683l1.275103-.086649c38.255843-2.633299 71.474836-11.40022 99.747395-26.261077l.724541-.384107zm-18.4844-131.5941476-294.654527 16.239211c30.309029 11.1666552 77.040165 16.9229384 139.865585 16.9229384 51.320334 0 95.551419-2.3429366 131.749901-6.3137554 13.815204-1.5154688 25.773462-3.2030795 35.366151-4.9058065 7.306278-1.2968832 12.735992-2.5332604 14.439572-3.1422803 2.6414-.944285 5.837621-2.5696758 8.419344-4.2871197-2.708324-1.6650679-5.434728-3.1864589-8.179276-4.565738-6.356111-3.1942784-15.358361-6.5100949-27.00675-9.9474495z"/></svg>