<svg height="960" viewBox="0 0 960 960" width="960" xmlns="http://www.w3.org/2000/svg"><path d="m225.246914 7.65811328 562.491879 52.54004542c10.280331.9602433 18.139979 9.5882401 18.139979 19.9133202v53.7455521c0 8.905593-5.888333 16.738293-14.443303 19.212577l-10.562397 3.054825.000918 685.613059c0 9.656598-6.895636 17.915611-16.358368 19.66571l-.347335.061115-542.585114 90.609433c-12.192541 2.036103-23.294296-7.365443-23.294296-19.726825l-.000805-812.820492-.043989-.016321c-4.050861-1.572177-7.492846-4.427479-9.786384-8.14678l-.233144-.38782c-5.757884-9.827708-9.808831-16.2650275-11.663921-18.6797848-3.302031-4.2982275-4.627754-8.6846225-5.379212-14.1872859-.456307-3.3413831-.65835-7.2538581-.65835-11.893191 0-8.3437038.666233-19.5105769 1.983834-33.6619191.806027-8.6569086 7.112568-15.801412 15.602504-17.675638l30.966118-6.83603524c2.024808-.44699366 4.106813-.57638793 6.171386-.38354468zm515.626158 808.05731972-502.585 83.911v9.103l502.585-83.929zm0-43.109-502.585 80.241v26.503l502.585-83.911zm0-39.146-502.585 72.844v36.416l502.585-80.242zm0-39.145-502.585 65.448v36.437l502.585-72.845zm0-39.144-502.585 58.052v36.456l502.585-65.449zm0-39.143-502.585 50.657v36.472l502.585-58.054zm0-39.141-502.585 43.259v36.487l502.585-50.657zm0-39.142-502.585 35.865v36.499l502.585-43.26zm0-39.139-502.585 28.468v36.51l502.585-35.865zm0-39.139-502.585 21.072v36.519l502.585-28.469zm0-39.138-502.585 13.677v36.525l502.585-21.072zm0-39.136-502.585 6.28v36.529l502.585-13.676zm-502.585-40.251v36.531l502.585-6.28v-29.135zm0-46.531v36.531l502.585 1.115v-29.133zm0-46.529v36.528l502.585 8.512v-29.131zm0-46.528v36.523l502.585 15.908v-29.127zm0-46.527v36.516l502.585 23.304v-29.119zm0-48.843v38.825l502.585 30.699.000918-34.419472c0-.420918.013154-.839439.039122-1.255111zm-13.647-58.2089995-13.489 2.978-.033244.5004726c-.383366 5.7829739-.580841 10.6311501-.594985 14.5172224v.8643245c.006662 1.7981589.056151 3.3000164.136077 4.4686199l.009152.1343606.134348.1965302c2.066068 3.0227843 4.567496 6.9840025 7.575954 11.9763257l.256698.4251441 3.538 1.0179997 536.273 36.1159998 7.431-2.149v-20.4909995z"/></svg>