<svg height="960" viewBox="0 0 960 960" width="960" xmlns="http://www.w3.org/2000/svg"><path d="m333.938295 3.78268875 322.6 15.61889445c39.538294 1.9142729 70.611761 34.5285802 70.611761 74.1131873v768.6485695c0 39.319811-30.672762 71.812722-69.92733 74.076881l-322.6 18.607201c-1.422745.082062-2.84756.123119-4.27267.123119-40.979528 0-74.2-33.220472-74.2-74.2v-802.8746649c0-1.1966049.028946-2.3930346.086813-3.5882395 1.98173-40.9315831 36.769843-72.50667778 77.701426-70.52494785zm-4.235125 39.91858995-.506368.0122064c-17.624546.5751219-32.138991 14.6057747-33.006733 32.5285124-.026671.5508896-.040013 1.1023437-.040013 1.6538786v802.8746649c0 18.618068 14.877122 33.761399 33.392017 34.190643-12.013147-11.472367-19.49659-27.646377-19.49659-45.568238v-779.9702458c0-.8426692.016907-1.6852536.050711-2.5272446.685681-17.0791337 8.10927-32.2965789 19.606976-43.1941769zm.376925 43.9964768c-.023072.5746922-.034612 1.1497895-.034612 1.7249447v779.9702458c0 23.748245 19.251756 43 43 43 .736734 0 1.473347-.018934 2.209108-.056783l16.269465-.837882 263.395344-15.191688c18.093076-1.043588 32.230656-16.020105 32.230656-34.143253v-768.6485695c0-18.2451962-14.322272-33.2776667-32.546121-34.1599866l-219.273094-10.615446c-.565591.0754374-1.145416.1033266-1.735121.0796515l-58.825292-2.3616772c-23.729129-.9526607-43.737672 17.5113147-44.690333 41.2404433zm303.919905 584.8271585v141.346729c0 10.087514-7.883056 18.41661-17.955311 18.971258l-211 11.619119c-.3479.019158-.696262.028742-1.044689.028742-10.49341 0-19-8.506589-19-19v-144.242848c0-5.374742 4.248513-9.788169 9.619359-9.992753l229-8.723c5.668015-.215905 10.380641 4.320627 10.380641 9.992753zm-20 10.387-209 7.962v133.56l209-11.509zm-219.115102-370.437712.278443.000683 229 3.742363c5.458435.08917 9.836659 4.539502 9.836659 9.998666l.000544 6.8017c.581491 1.899948.591947 3.952878-.000846 5.879429l.000302 287.930871c0 5.374741-4.248513 9.788168-9.619359 9.992753l-229 8.723c-5.668015.215904-10.380641-4.320627-10.380641-9.992753v-313.076c0-5.493635 4.426032-9.939514 9.884898-10.000712zm219.114158 52.732079-49.818477 62.807102c11.076677 13.537672 17.819421 31.912426 17.819421 51.986617 0 41.053925-28.201354 75-64 75-15.654243 0-29.85574-6.491133-40.881634-17.229258l-69.23431 87.281539 206.115944-7.851367zm-208.999056-32.567367-.000944 263.867367 59.591017-75.123664c-6.70948-11.902862-10.590073-26.153708-10.590073-41.382617 0-41.053925 28.201354-75 64-75 11.448563 0 22.120115 3.471829 31.340739 9.537665l62.286317-78.524384zm113 92.361086c-23.848107 0-44 24.256908-44 55s20.151893 55 44 55 44-24.256908 44-55-20.151893-55-44-55zm-113.137854-311.562344 211 9.584234c10.147704.460938 18.137854 8.822263 18.137854 18.98043v138.488594c0 5.58673-4.577312 10.089896-10.163297 10.000028l-229-3.741362c-5.458453-.089146-9.836703-4.539486-9.836703-9.998666v-144.332828c0-.143743 0-.28748.004893-.431184l.003219-.113433.006953-.20414.004506-.113389c.47615-10.482602 9.359974-18.594434 19.842575-18.118284zm.137854 20.027258v133.448l209 3.413v-127.368z"/></svg>
