<?xml version="1.0" encoding="UTF-8"?>
<svg width="960" height="960" version="1.1" viewBox="0 0 960 960" xmlns="http://www.w3.org/2000/svg">
 <g transform="translate(81)">
  <path d="m291.16 2.4241 0.35552 0.079949 0.49756-0.013707c1.3587-0.025247 2.7219 0.0036 4.087 0.087063l0.81923 0.056636 412 31.776c26.566 2.049 47.078 24.204 47.078 50.849v790.13c0 26.718-20.62 48.907-47.265 50.863l-412 30.251c-1.2428 0.0912-2.4885 0.13692-3.7346 0.13692-0.60449 0-1.208-0.0106-1.8103-0.0318l-0.1497-8e-3 -0.34822 0.0699c-2.8924 0.54595-5.967 0.45695-9.0444-0.40033l-0.38468-0.11073-204.32-42.673c-21.191-4.4257-34.944-25.293-34.944-46.941v-776.44c0-21.786 13.927-42.83 35.302-47.046l204.11-40.26c3.3989-0.67044 6.6524-1.0368 9.7536-0.37336zm-18.369 59.85c-0.0396 0.52541-0.0595 1.0521-0.0595 1.579v831.27c0 11.598 9.402 21 21 21 0.5017 0 1.0032-0.018 1.5036-0.0539l267.15-19.179 143.42-10.53c5.7471-0.42198 10.194-5.2078 10.194-10.97v-790.13c0-5.747-4.4241-10.525-10.154-10.967l-246.03-18.976-164.5-12.403c-11.565-0.87208-21.648 7.7964-22.52 19.362zm-14.415-15.945-165.89 29.134c-7.8895 1.5427-10.363 5.8067-10.484 14.369v776.71c0 12.605 1.6654 14.582 10.418 16.622l165.87 31.158c-4.0682-3.9149-5.5496-4.4478-5.5496-19.204v-831.27c0-1.0287 0.0201-2.0586 0.11607-3.0829 0.66942-7.1421 2.9424-12.639 5.528-14.441z"/>
  <path d="m632.37 659.42v135.76c0 13.427-10.493 24.514-23.9 25.252l-202.32 11.136c-0.46284 0.0255-0.92633 0.0383-1.3899 0.0383-13.967 0-25.291-11.323-25.291-25.29v-138.51c0-9.0608 7.1614-16.501 16.216-16.848l219.18-8.3845c9.5573-0.3656 17.505 7.2834 17.505 16.848zm-25.721 9.516-201.46 7.0947v129.37l201.46-10.209zm-210.04-361.2 219.18 3.5952c9.2026 0.1509 16.584 7.654 16.584 16.858v287.39c0 9.0608-7.1614 16.501-16.216 16.848l-219.18 8.3845c-9.5573 0.36561-17.505-7.2834-17.505-16.848v-299.37c0-9.1056 7.212-16.504 16.2-16.85l0.46648-0.0101zm210.04 62.253-190.59 244.04 190.59-6.6769zm-201.46-36.255v247.75l191.25-244.88zm-0.33763-216.13 0.30214 7e-3h0.0489l0.17563 3e-3 0.52882 0.0186 202.32 9.1856c13.507 0.61325 24.143 11.743 24.143 25.264v132.27c0 9.4196-7.7189 17.012-17.137 16.858l-219.18-3.5929c-9.2026-0.1509-16.584-7.654-16.584-16.858v-138.01c0-0.15613 3e-3 -0.20194 7e-3 -0.43138l5e-3 -0.19116 7e-3 -0.19111 8e-3 -0.19109c0.59339-13.07 11.006-23.371 23.79-24.102l0.38439-0.0175 0.19015-0.0101 0.36961-8e-3 0.0974-2e-3 0.0341 3.5e-4 0.15359-5e-3 0.15326 3e-3zm0.33595 26.111v128.46l201.46 3.0399v-123.08z" stroke-width="1.686"/>
  <path d="m211.41 645.41-94.853-5.9456c-10.613-0.66524-11.521-22.438 0.51752-21.721l93.481 5.567c14.451 1.2246 14.393 23.382 0.85505 22.099z" stroke-width=".73493"/>
  <path d="m197.37 766.46-67.941-5.4402c-7.6017-0.6087-9.1612-22.344-0.53956-21.691l66.946 5.0693c10.365 1.1471 11.25 23.272 1.535 22.062z" stroke-width=".62049"/>
 </g>
</svg>
