<?xml version="1.0" encoding="UTF-8"?>
<svg id="layer" width="100" height="100" version="1.1" viewBox="0 0 100 100" xml:space="preserve" xmlns="http://www.w3.org/2000/svg">
	<g transform="translate(-20.659 -278.5)" stroke-width="1.173">
    <path class="st0" d="m73.181 303.87c-0.82109-0.1173-1.6422-0.1173-2.4633-0.1173s-1.7595 0-2.4633 0.1173l-2.5806-24.633c1.6422-0.1173 3.4017-0.2346 5.0438-0.2346 1.6422 0 3.4017 0.1173 5.0438 0.2346z"/>
    <path class="st0" d="m62.976 305.04c-0.82109 0.2346-1.6422 0.5865-2.346 0.82109-0.82109 0.3519-1.5249 0.7038-2.2287 1.0557l-11.964-21.7c1.5249-0.82109 2.9325-1.5249 4.5746-2.2287 1.5249-0.70379 3.1671-1.173 4.6919-1.7595z"/>
    <path class="st0" d="m54.647 309.61c-0.58649 0.58649-1.2903 1.173-1.8768 1.7595-0.58649 0.58649-1.173 1.173-1.6422 1.8768l-19.472-15.366c1.0557-1.2903 2.1114-2.5806 3.4017-3.8708 1.173-1.173 2.346-2.346 3.6363-3.4017z"/>
    <path class="st0" d="m48.665 317.12c-0.3519 0.70379-0.70379 1.5249-1.0557 2.346-0.3519 0.82109-0.58649 1.6422-0.82109 2.346l-23.812-6.9206c0.4692-1.6422 1.0557-3.1671 1.6422-4.8092 0.58649-1.5249 1.2903-3.0498 2.1114-4.5746z"/>
    <path class="st0" d="m45.967 326.27c-0.1173 0.82109-0.1173 1.6422-0.1173 2.4633s0 1.7595 0.1173 2.4633l-24.633 2.5806c-0.1173-1.6422-0.2346-3.4017-0.2346-5.0438s0.1173-3.4017 0.2346-5.0438z"/>
    <path class="st0" d="m47.14 336.36c0.2346 0.82109 0.58649 1.6422 0.82109 2.346 0.3519 0.82109 0.70379 1.5249 1.0557 2.2287l-21.7 11.964c-0.82109-1.5249-1.5249-2.9325-2.2287-4.5746-0.70379-1.5249-1.173-3.1671-1.7595-4.6919z"/>
    <path class="st0" d="m51.598 344.69c0.58649 0.5865 1.173 1.2903 1.7595 1.8768s1.173 1.173 1.8768 1.6422l-15.366 19.472c-1.2903-1.0557-2.5806-2.1114-3.8709-3.4017-1.173-1.173-2.346-2.346-3.4017-3.6363z"/>
    <path class="st0" d="m59.105 350.79c0.70379 0.3519 1.5249 0.70379 2.2287 1.0557 0.82109 0.35189 1.6422 0.58649 2.346 0.82109l-6.9206 23.812c-1.6422-0.4692-3.1671-1.0557-4.8092-1.6422-1.5249-0.58649-3.0498-1.2903-4.5746-2.1114z"/>
    <path class="st0" d="m68.019 353.13c0.82109 0.1173 1.6422 0.1173 2.4633 0.1173s1.7595 0 2.4633-0.1173l2.5806 24.633c-1.6422 0.1173-3.4017 0.2346-5.0438 0.2346-1.6422 0-3.4017-0.1173-5.0438-0.2346z"/>
    <path class="st0" d="m78.224 351.96c0.82109-0.2346 1.6422-0.5865 2.346-0.82109 0.82109-0.3519 1.5249-0.7038 2.2287-1.0557l12.082 21.583c-1.5249 0.82109-2.9325 1.5249-4.5746 2.2287-1.5249 0.70379-3.1671 1.173-4.6919 1.7595z"/>
    <path class="st0" d="m86.553 347.39c0.58649-0.58649 1.2903-1.173 1.8768-1.7595 0.58649-0.58649 1.173-1.2903 1.6422-1.8768l19.472 15.249c-1.0557 1.2903-2.1114 2.5806-3.2844 3.8708-1.173 1.173-2.4633 2.346-3.6363 3.4017z"/>
    <path class="st0" d="m92.535 339.88c0.3519-0.70379 0.70379-1.5249 1.0557-2.2287 0.3519-0.82109 0.58649-1.5249 0.82109-2.346l23.812 6.9206c-0.46919 1.6422-1.0557 3.1671-1.6422 4.8092-0.58649 1.5249-1.2903 3.0498-2.1114 4.5746z"/>
    <path class="st0" d="m95.35 331.08c0.1173-0.82109 0.1173-1.6422 0.1173-2.4633s0-1.7595-0.1173-2.4633l24.633-2.5806c0.1173 1.6422 0.2346 3.4017 0.2346 5.0438s-0.1173 3.4017-0.2346 5.0438z"/>
    <path class="st0" d="m94.06 320.88c-0.2346-0.82109-0.58649-1.6422-0.82109-2.346-0.3519-0.82109-0.70379-1.5249-1.0557-2.2287l21.7-11.964c0.82109 1.5249 1.5249 2.9325 2.2287 4.5746 0.70379 1.5249 1.173 3.1671 1.7595 4.6919z"/>
    <path class="st0" d="m89.602 312.66c-0.58649-0.58649-1.173-1.2903-1.7595-1.8768-0.58649-0.58649-1.173-1.173-1.8768-1.6422l15.249-19.472c1.2903 1.0557 2.5806 2.1114 3.8708 3.4017 1.173 1.173 2.346 2.346 3.4017 3.6363z"/>
    <path class="st0" d="m82.095 306.57c-0.70379-0.3519-1.5249-0.7038-2.346-1.0557-0.82109-0.3519-1.6422-0.58649-2.346-0.82109l6.9206-23.812c1.6422 0.46919 3.1671 1.0557 4.8092 1.6422 1.5249 0.58649 3.0498 1.2903 4.5746 2.1114z"/>
  </g>
</svg>
