<svg height="960" viewBox="0 0 960 960" width="960" xmlns="http://www.w3.org/2000/svg"><path d="m333.938295 3.78268875 322.6 15.61889445c39.538294 1.9142729 70.611761 34.5285802 70.611761 74.1131873v768.6485695c0 39.319811-30.672762 71.812722-69.92733 74.076881l-322.6 18.607201c-1.422745.082062-2.84756.123119-4.27267.123119-40.979528 0-74.2-33.220472-74.2-74.2v-802.8746649c0-1.1966049.028946-2.3930346.086813-3.5882395 1.98173-40.9315831 36.769843-72.50667778 77.701426-70.52494785zm-4.235125 39.91858995-.506368.0122064c-17.624546.5751219-32.138991 14.6057747-33.006733 32.5285124-.026671.5508896-.040013 1.1023437-.040013 1.6538786v802.8746649c0 18.618068 14.877122 33.761399 33.392017 34.190643-12.013147-11.472367-19.49659-27.646377-19.49659-45.568238v-779.9702458c0-.8426692.016907-1.6852536.050711-2.5272446.685681-17.0791337 8.10927-32.2965789 19.606976-43.1941769zm.376925 43.9964768c-.023072.5746922-.034612 1.1497895-.034612 1.7249447v779.9702458c0 23.748245 19.251756 43 43 43 .736734 0 1.473347-.018934 2.209108-.056783l16.269465-.837882 263.395344-15.191688c18.093076-1.043588 32.230656-16.020105 32.230656-34.143253v-768.6485695c0-18.2451962-14.322272-33.2776667-32.546121-34.1599866l-219.273094-10.615446c-.565591.0754374-1.145416.1033266-1.735121.0796515l-58.825292-2.3616772c-23.729129-.9526607-43.737672 17.5113147-44.690333 41.2404433zm75.782184 27.7399725 210 9.54028c10.147649.461007 18.137721 8.822308 18.137721 18.980423l.000139 170.098922c.002216.12255.002218.245621-.000029.369174l-.001054 339.194754.001006.070212c-.000022.018739-.000095.037466-.000221.056182l.000159 159.177173c0 10.087453-7.882963 18.41652-17.955151 18.971249l-210 11.565834c-.347953.019164-.696368.028751-1.044849.028751-10.49341 0-19-8.50659-19-19l-.000881-514.423761c-.001455-.1083-.001182-.217002.000844-.326079l.000037-175.32269c0-.287538.006527-.575038.019577-.862279.476223-10.482598 9.360103-18.594368 19.842702-18.118145zm208.136777 548.502553-208 5.474.000944 154.019698 208-11.456zm0-173.941h-208v159.408l208-5.474zm-208-169.879v149.879h208v-145.946zm.000944-184.655302-.000944 164.651302 208 3.933.000944-159.135302z"/></svg>