<?xml version="1.0" encoding="UTF-8"?>
<svg width="960px" height="960px" version="1.1" viewBox="0 0 960 960"
     xmlns="http://www.w3.org/2000/svg" xmlns:cc="http://creativecommons.org/ns#"
     xmlns:dc="http://purl.org/dc/elements/1.1/"
     xmlns:rdf="http://www.w3.org/1999/02/22-rdf-syntax-ns#">
  <g id="com.caseta.lutron/drivers/smart-hub" fill="none" fill-rule="evenodd">
    <path id="Combined-Shape"
          d="m532.01 168.23c221.53 80.614 343.31 124.71 365 132.15 5.479 1.8812 10.429 3.9017 14.878 6.0704l13.943 5.0535c6.5318 2.3671 11.9 7.1609 14.988 13.384 2.5744 5.1889 3.3255 10.807 2.4984 16.126 0.97269 4.061 1.4367 8.367 1.4367 12.931l8.3e-4 134.82c0.34124 1.4872 0.32905 3.0066 2.8e-4 4.4477l-1e-3 69.673c0 8.7074-4.9171 16.668-12.703 20.566l-393.55 197.04c-0.10642 0.0533-0.21378 0.10465-0.32203 0.1541l-9.9993 4.5675c-29.299 13.383-62.991 13.252-92.185-0.3589l-8.9828-4.1877-389.75-169.73c-0.04444-0.0194-0.08874-0.039-0.1329-0.059l-0.13202-0.061c-13.531-6.3671-21.281-15.735-21.281-27.831l-7.06e-4 -199.3c-1.3383-1.6699-2.4482-3.5325-3.2852-5.5428-4.8822-11.727 0.66653-25.191 12.393-30.073l4.4522-1.8539c0.3973-0.19182 0.80144-0.37346 1.2122-0.54454l421.62-175.61c25.463-10.608 53.983-11.26 79.905-1.8269zm-10.579 540.39c-25.805 12.881-55.935 13.809-82.48 2.5406l-403.24-171.18 5.22e-4 43c0 3.1986 2.6096 6.3531 9.796 9.7346l-0.12105-0.0579 389.73 169.72c0.039 0.017 0.0779 0.0342 0.11677 0.0517l0.11609 0.0532 9.097 4.2412c23.886 11.136 51.452 11.243 75.424 0.29364l9.8352-4.4926 393.39-196.96c0.95583-0.47855 1.5802-1.4265 1.6569-2.4832l-5.8e-4 -55.786zm403.32-223.68v-121.94l-412.93 204.87c-19.843 9.8451-42.994 10.543-63.395 1.9106l-412.72-174.64v123.11l411.05 174.5c21.156 8.981 45.165 8.2414 65.732-2.0253zm-464.96-296.42-105.58 43.976c-0.3943 0.23228-0.80925 0.44025-1.2437 0.62112l-315.27 131.25c-1.2178 0.70954-1.9854 2.02-1.9854 3.4558l-5.22e-4 5.6023 420.51 177.94c15.032 6.3606 32.09 5.8465 46.712-1.4078l416.81-206.8c1.0292-0.51061 1.8774-1.2404 2.5163-2.105-0.77287-1.6342-1.742-3.1787-2.9282-4.6746-3.2516-4.1003-8.243-7.9469-15.321-11.511l-356.17-129.07c-1.0255-0.37165-1.9532-0.8936-2.7672-1.532-6.5402-2.3805-13.174-4.7943-19.9-7.2419-21.209-7.7176-44.543-7.1843-65.376 1.4948z"
          fill="#000" fill-rule="nonzero"/>
  </g>
</svg>
