<svg height="960" viewBox="0 0 960 960" width="960" xmlns="http://www.w3.org/2000/svg"><g fill="#000" fill-rule="evenodd"><path d="m452.173334-27.9326515 45.985301 5.3641426c5.482056.6394768 9.409481 5.5994317 8.775086 11.0820789-4.389079 37.9318332-7.051647 66.6982807-7.962887 85.9038195-.09227 1.944713-.141987 4.8081897-.148184 8.5715016l-.00031 1.4282201c.002765 2.4401379.021899 5.2169313.057625 8.3260318 1.922123 1.8231146 3.120035 4.4000922 3.120035 7.256857l.00132 33.49215c15.383508 1.579508 29.794527 3.846144 43.244915 6.8168 22.978008 5.076017 42.496964 20.131396 53.242249 41.06686l.067516.13419 1.316452 2.581978c45.000363 88.799189 65.563856 185.12824 61.66029 288.337713l-.127139 3.161622c-4.162777 97.713446-19.501218 189.916648-46.056642 276.5361-9.783386 31.910245-37.779313 54.819223-70.995095 58.094705-15.417378 1.520115-29.177976 2.856425-41.354294 4.013477l.000428 58.435531c0 2.961542-1.290174 5.632195-3.348239 7.467093 1.181841 57.017233 3.217329 100.316795 6.073315 129.491331 2.938728 30.01975 8.618447 64.10827 17.03894 102.17862 1.192973 5.39361-2.213244 10.73285-7.607207 11.92426l-45.419341 10.03221c-5.391761 1.19093-10.728339-2.2136-11.920826-7.60501-8.985879-40.62656-15.082854-77.28376-18.291013-110.05582-3.003585-30.682285-5.102723-74.663657-6.328398-132.330288-3.090114-1.696533-5.197231-4.980275-5.197231-8.773522l-.000779-55.006954c-20.204814-.095166-31.143307-1.20884-45.221113-5.881985-19.532852-6.483956-33.481636-21.255943-40.844236-40.833787-.741511-1.971749-1.326104-3.998994-1.748322-6.062818-21.237714-103.81103-31.290106-201.758985-30.089467-293.847147 1.11799-85.748952 9.974249-178.010859 26.533759-276.812361 4.695182-28.005676 25.518429-50.578597 53.055209-57.513175l.048949-.011773 1.315001-.327146c11.628708-2.859352 23.61512-4.917426 35.950821-6.182923l.000178-32.519931c0-3.9453425 2.284784-7.357045 5.603392-8.984147-.031255-2.8770986-.048159-5.5045943-.049813-7.8859019l.000256-1.0316056c.005584-4.5708385.070998-8.1784032.197314-10.8406764.992294-20.913851 3.76089-50.9208564 8.329829-90.4070965.635228-5.4898389 5.603108-9.4235398 11.092356-8.7832241zm27.538662 911.1746995-26.498 1.122.007383.322555c1.206709 55.937896 3.243097 98.700494 6.116134 128.511507l.092968.95715c2.817585 28.78225 7.945909 60.78036 15.393856 96.032l.398663 1.88274 25.891-5.718-.370021-1.74937c-7.09239-33.58546-12.01869-64.08976-14.770325-91.47761l-.15343-1.54693c-2.856171-29.176416-4.888902-71.768666-6.091196-127.545562zm3.285945-67.136567c-14.736632 1.35057-26.332386 2.34134-34.998164 2.985539l.000219 44.697028 33.469-.639 1.531004-.064048zm-52.509712-643.732596-1.269609.137125c1.047587 2.01125 2.02302 4.31498 3.044954 7.019668.096857.256345.318363.849867.555431 1.485489l.204469.548247c.237057.635591.45851 1.228976.555275 1.485078 3.110828 8.233208 10.101037 45.420372 15.37954 88.930539 8.034536 66.227883 12.567346 144.641859 11.993907 233.925004-.304985 47.485369-1.811113 89.160997-5.220397 130.380649-4.253369 51.424976-11.297843 98.751498-21.787568 142.143352-.112682.466121-.294965.975177-.536998 1.515815 11.305302-.439384 46.335098-3.552566 105.086034-9.337971l1.935726-.190788c17.159542-1.692091 31.622723-13.527251 36.676986-30.012623 25.536564-83.2961 40.315121-172.134016 44.335873-266.513687 4.200993-98.610528-15.312604-190.026348-58.540793-274.247458-5.303591-10.335765-14.939531-17.768167-26.283105-20.274049-19.656933-4.341434-42.027525-7.043405-67.111628-8.106577-13.510531-.572635-26.516564-.201906-39.018097 1.112187zm-31.913419 5.766325-.357109.029866-.437499.13264c-11.296546 3.514362-19.728622 13.102676-21.700919 24.866973-16.234263 96.860933-24.896378 187.100978-25.986599 270.720093-1.161787 89.108153 8.598611 184.210989 29.281194 285.308506 3.333839 8.864993 8.66921 14.515236 16.006112 16.95073 3.016803 1.001432 6.028277 1.743284 9.094278 2.292618 2.512944-.345915 4.804396-1.2536 6.778413-2.639194.857135-.601637 1.983254-1.706175 3.046844-2.985923.183589-.220902.358327-.438638.519128-.645566l.086399-.113215.083579-.34554c9.798918-41.080913 16.485324-85.941694 20.610418-134.675234l.200811-2.399855c3.362043-40.648489 4.850765-81.842487 5.152748-128.860526.567968-88.431238-3.915862-165.997898-11.848747-231.387882-2.88794-23.804995-6.077355-44.562656-9.272117-61.558443-1.22759-6.53065-2.397023-12.174366-3.418003-16.609174-.760268-3.302356-1.401904-5.726358-1.544054-6.102578-.246472-.652318-1.119085-2.999834-1.315181-3.518829-1.742867-4.612735-2.741409-6.310897-3.95873-7.166809-1.651876-1.161452-4.980387-1.77628-11.020966-1.292658zm148.589275 271.860787c14.789757-.01271 27.058137 11.830106 27.058137 26.796705v27.211037c0 14.606876-11.716691 26.451883-26.146253 27.098024l-19.362573.867035c-15.273752.683943-27.935618-11.422856-27.935618-26.712255v-28.19025c0-14.927031 12.091943-27.040763 27.02372-27.053616zm.017202 20-19.362574.016673c-3.888601.003347-7.040935 3.161361-7.040935 7.053623v28.19025c0 3.892261 3.152334 6.906404 7.040935 6.732277l19.362574-.867036c3.888601-.174127 7.040935-3.360984 7.040935-7.118045v-27.211037c0-3.757061-3.152334-6.800046-7.040935-6.796705zm-65.181287-359.999997h-35l.000364 21.171258c7.932866-.264696 16.000153-.222217 24.199813.12532 3.647568.154599 7.248018.341712 10.801474.561516zm-22.187539-116.907-.076375.68875376c-3.800788 33.85769734-6.130423 59.94014884-7.007411 78.42378364-.111703 2.3542938-.170359 5.6783788-.174941 9.9550709l-.000018 1.089009c.002034 2.0328644.015445 4.2655416.040331 6.6963771l.000414.0540056h26.256l.000425-.0121102c-.015838-1.8340575-.025185-3.5442442-.027992-5.13154l-.000538-1.6244649c.00501-4.2112511.061625-7.4581628.170952-9.7623637.849143-17.8967562 3.145691-43.5264637 6.870993-76.71309072l.06816-.61643048z" fill-rule="nonzero"/><path d="m541.105263 475c3.255573-.002628 5.894737 2.38829 5.894737 5.340265v21.380102c0 2.951976-2.639164 5.455935-5.894737 5.592749l-16.210526.681242c-1.400192.058843-2.686362-.345697-3.697584-1.069214-.12893-.530977-.197153-1.088159-.197153-1.664601v-28.19025c0-.236112.011446-.469521.033806-.699689 1.033215-.844715 2.383608-1.356313 3.860931-1.357506z"/></g></svg>