<?xml version="1.0" encoding="UTF-8"?>
<svg width="960px" height="960px" viewBox="0 0 960 960" version="1.1" xmlns="http://www.w3.org/2000/svg" xmlns:xlink="http://www.w3.org/1999/xlink">
    <title>com.caseta.lutron/drivers/smart-hub/assets/pair</title>
        <style type="text/css">
#pair {
	animation: pair 3s infinite;
}

@keyframes pair {
	0%, 100% {
		fill: rgba(255,255,255,0);
	}
	50% {
		fill: #0074CC;
	}
}
</style>
    <g id="com.caseta.lutron/drivers/smart-hub" stroke="none" stroke-width="1" fill="none" fill-rule="evenodd">
        <path d="M532.00658,168.23191 C753.535206,248.845882 875.321203,292.939852 897.006028,300.385462 C902.485005,302.2667 907.43479,304.287203 911.884169,306.455851 L925.827246,311.509314 C932.359044,313.876394 937.727022,318.670213 940.814804,324.893803 C943.389212,330.082661 944.140315,335.700564 943.313221,341.019694 C944.285912,345.080744 944.749946,349.386714 944.749946,353.950899 L944.750779,488.770959 C945.092017,490.258167 945.079825,491.777606 944.75106,493.218699 L944.749946,562.891416 C944.749946,571.59877 939.832814,579.559586 932.046791,583.457772 L538.496767,780.49431 C538.390351,780.547589 538.282992,780.598964 538.174742,780.64841 L528.175413,785.2159 C498.876713,798.598948 465.184324,798.467776 435.990716,784.857004 L427.007896,780.669334 L37.2566231,610.936941 C37.2121817,610.917587 37.1678822,610.897911 37.1237281,610.877914 L36.9917054,610.81696 C23.4602194,604.449843 15.7108959,595.082415 15.7108959,582.985663 L15.7101897,383.687682 C14.3719287,382.017768 13.2619687,380.155168 12.4250301,378.144865 C7.54285265,366.418011 13.0915592,352.953731 24.8184131,348.071553 L29.2706585,346.217636 C29.6679624,346.025818 30.072102,345.844176 30.482815,345.673104 L452.101117,170.058853 C477.564059,159.450923 506.083885,158.799068 532.00658,168.23191 Z M924.749374,363.004352 L511.820634,567.876137 C491.977286,577.721247 468.826151,578.418962 448.425943,569.786686 L35.7103745,395.147352 L35.7103745,518.257352 L446.763059,692.7575 C467.918971,701.738554 491.927912,700.998925 512.495327,690.732234 L577.005198,658.530631 C577.091201,665.863675 579.307802,672.641165 582.985146,677.899371 L521.427753,708.626696 C495.622491,721.507977 465.492847,722.436163 438.947771,711.167315 L35.7103745,539.985352 L35.7108959,582.985663 C35.7108959,586.184217 38.3205249,589.338752 45.5069437,592.720255 L45.3858959,592.662334 L435.112031,762.384083 C435.151063,762.401081 435.189985,762.418328 435.228796,762.435823 L435.344892,762.48905 L444.441842,766.73027 C468.327521,777.866356 495.894021,777.973679 519.865685,767.023912 L529.700896,762.531334 L923.093013,565.573984 C924.048842,565.095435 924.673197,564.147485 924.749946,563.090742 L924.749374,507.304352 L901.472136,518.944272 C899.890111,519.735284 898.198652,520.0676 896.548987,519.991629 L897.775327,548.249174 L802.051282,594.274376 L800.963374,567.707352 L627.187979,655.081053 C626.605553,647.836511 623.939503,641.271256 619.875325,636.371522 L795.50791,548.065733 C796.988443,547.321331 798.565932,546.979344 800.115919,546.998596 L799.471254,531.23441 L820.682508,520.563759 L820.682508,501.323432 L864.088687,481.86973 L865.432209,499.342425 L895.037833,485.168424 L895.658374,499.489352 L924.749374,484.944352 L924.749374,363.004352 Z M757.471219,603.88611 C757.821942,604.616782 758.004028,605.416913 758.004028,606.227399 C758.004028,611.482838 754.990142,616.272608 750.252243,618.546799 L712.014919,636.900715 C709.321047,638.193773 706.089002,637.05819 704.795943,634.364318 C704.445221,633.633646 704.263134,632.833515 704.263134,632.023029 C704.263134,626.76759 707.27702,621.97782 712.014919,619.703629 L750.252243,601.349713 C752.946115,600.056655 756.178161,601.192238 757.471219,603.88611 Z M459.791802,188.521068 L354.213605,232.496942 C353.819303,232.729223 353.404355,232.937188 352.969903,233.118061 L37.6962502,364.372325 C36.4784189,365.081857 35.7108959,366.392358 35.7108959,367.82807 L35.7103745,373.430352 L456.219829,551.367801 C471.251561,557.728425 488.310293,557.214319 502.931706,549.960027 L919.739181,343.164493 C920.76835,342.653879 921.6166,341.924062 922.255477,341.059529 C921.48261,339.42532 920.513491,337.880857 919.32723,336.384959 C916.075628,332.284627 911.084186,328.438104 904.006401,324.874335 L547.834727,195.800121 C546.809191,195.428474 545.881511,194.906525 545.067535,194.268138 C538.527371,191.887677 531.893474,189.473817 525.167491,187.02624 C503.95851,179.308642 480.624859,179.84196 459.791802,188.521068 Z" id="Combined-Shape" fill="#000000" fill-rule="nonzero"></path>
        <path d="M602.155436,637.560438 C610.230298,637.560438 617.308271,646.52587 617.308271,658.087362 C617.308271,669.648855 610.230298,678.614287 602.155436,678.614287 C594.080573,678.614287 587.0026,669.648855 587.0026,658.087362 C587.0026,646.52587 594.080573,637.560438 602.155436,637.560438 Z" id="pair" fill="#0074CC"></path>
        <path d="M602.155436,627.560438 C616.34078,627.560438 627.308271,641.452592 627.308271,658.087362 C627.308271,674.722132 616.34078,688.614287 602.155436,688.614287 C587.970091,688.614287 577.0026,674.722132 577.0026,658.087362 C577.0026,641.452592 587.970091,627.560438 602.155436,627.560438 Z M602.155436,637.560438 C594.080573,637.560438 587.0026,646.52587 587.0026,658.087362 C587.0026,669.648855 594.080573,678.614287 602.155436,678.614287 C610.230298,678.614287 617.308271,669.648855 617.308271,658.087362 C617.308271,646.52587 610.230298,637.560438 602.155436,637.560438 Z" id="Oval" fill="#000000" fill-rule="nonzero"></path>
    </g>
</svg>