<svg height="960" viewBox="0 0 960 960" width="960" xmlns="http://www.w3.org/2000/svg"><path d="m225.246914 7.65811328 562.491879 52.54004542c10.280331.9602433 18.139979 9.5882401 18.139979 19.9133202v53.7455521c0 8.905593-5.888333 16.738293-14.443303 19.212577l-10.562397 3.054825.000918 685.613059c0 9.656598-6.895636 17.915611-16.358368 19.66571l-.347335.061115-542.585114 90.609433c-12.192541 2.036103-23.294296-7.365443-23.294296-19.726825l-.000805-812.820492-.043989-.016321c-4.050861-1.572177-7.492846-4.427479-9.786384-8.14678l-.233144-.38782c-5.757884-9.827708-9.808831-16.2650275-11.663921-18.6797848-3.302031-4.2982275-4.627754-8.6846225-5.379212-14.1872859-.456307-3.3413831-.65835-7.2538581-.65835-11.893191 0-8.3437038.666233-19.5105769 1.983834-33.6619191.806027-8.6569086 7.112568-15.801412 15.602504-17.675638l30.966118-6.83603524c2.024808-.44699366 4.106813-.57638793 6.171386-.38354468zm515.626158 813.05731972-502.585 83.911v4.103l502.585-83.929zm0-66.773-498.821 77.561 7.649 45.942 491.172-82.006zm0-60.463-407.953 54.154-91.162 12.101 7.558 45.397 491.557-76.43zm0-60.46-170.61 18.769-329.945 36.298 7.601 45.656 243.445-32.317 249.509-33.123zm0-60.454-498.887 43.541 7.631 45.837 92.302-10.155 398.954-43.89zm0-60.45-499.676 32.25 7.669 46.064 492.007-42.942zm0-60.444-499.974 20.904 7.703 46.27 486.771-31.417 5.5-.355zm0-60.44-499.942 9.537 7.735 46.463 489.193-20.452 3.014-.126zm-499.742-62.263 7.765 46.644 491.977-9.385v-35.43zm.871-71.766 7.791 46.798 491.08 1.796v-35.428zm-1.974-71.863 7.825 47.009 493.02 13.012v-35.416zm.565-73.604 8.159 49.009 383.828 18.856 108.293 5.32v-36.944zm3.692339-25.3909517 514.161661 34.6259517 7.431-2.149v-20.4909995l-519.251718-48.4998326c.464941 14.9687686-.246594 27.0914186-2.340943 36.5138804zm-19.644339-38.5690478-13.489 2.978-.033244.5004726c-.383366 5.7829739-.580841 10.6311501-.594985 14.5172224v.8643245c.006662 1.7981589.056151 3.3000164.136077 4.4686199l.009152.1343606.134348.1965302c2.066068 3.0227843 4.567496 6.9840025 7.575954 11.9763257l.256698.4251441 3.538 1.0179997 1.80296.1218863c.760781-2.5935713 1.386744-5.8094283 1.844931-9.6244619.871701-7.2580943 1.109006-16.4040136.697942-27.3999768z"/></svg>