<svg height="960" viewBox="0 0 960 960" width="960" xmlns="http://www.w3.org/2000/svg"><path d="m291.16248 2.42405094.35552.07994906.49756-.01370655c1.358713-.02524732 2.721934.00359927 4.086996.08706257l.819238.05663615 412 31.77603403c26.566492 2.0489751 47.078206 24.2035975 47.078206 50.8489875v790.1302733c0 26.717591-20.61952 48.906605-47.26538 50.863077l-412 30.251087c-1.242783.091252-2.488492.136923-3.73462.136923-.604495 0-1.208002-.010606-1.810299-.031766l-.149701-.007608-.348224.06991c-2.892398.545949-5.966963.456948-9.044417-.400327l-.384683-.11117-42.319121-12.672545c-20.738069-6.210056-34.943555-25.292644-34.943555-46.940562v-834.4424217c0-21.7861653 14.384205-40.9558759 35.301741-47.0463357l42.107133-12.2601346c3.3263-.96850312 6.65237-1.03681265 9.753606-.37336306zm-18.36906 59.84975736c-.039619.525412-.05945 1.052129-.05945 1.5790326v831.2692581c0 11.59798 9.40202 21 21 21 .501701 0 1.00324-.017978 1.503652-.053901l267.149378-19.178707 143.418506-10.529737c5.747147-.421984 10.194494-5.20785 10.194494-10.970467v-790.1302733c0-5.7470449-4.424095-10.5254929-10.154123-10.9674287l-246.034877-18.9760939-164.497997-12.4032007c-11.565147-.8720756-21.647508 7.7963712-22.519583 19.3615179zm-18.415389-9.9448129-3.894038 1.1337252c-3.754678 1.0932319-6.363282 4.48082-6.483993 8.3690986v834.7144868c0 3.976148 2.609171 7.481114 6.418204 8.621736l3.865312 1.157818c-1.009356-3.56107-1.549546-7.319331-1.549546-11.203761v-831.2692581c0-1.0287166.038717-2.0570688.116068-3.0828731.219988-2.9173956.740166-5.7403792 1.527993-8.4409724zm159.396498 170.1214036 174 8.80744c15.426698.78086 27.533971 13.516473 27.533971 28.96292v436.533718c0 15.338329-11.943898 28.024163-27.254415 28.947416l-174 10.492536c-.581202.035048-1.163328.052583-1.745585.052583-16.016258 0-29-12.983742-29-29v-455.833693c0-.488911.012363-.977744.037079-1.46603.809666-15.995779 14.433171-28.306556 30.42895-27.49689zm-10.454522 28.507946c-.00767.151537-.011507.303243-.011507.454974v455.833693c0 4.970563 4.029437 9 9 9 .1807 0 .36136-.005442.541733-.016319l174-10.492535c4.75154-.286527 8.458267-4.22351 8.458267-8.983681v-436.533718c0-4.793725-3.75743-8.746156-8.545026-8.988492l-174-8.80744c-4.964207-.251276-9.192191 3.56931-9.443467 8.533518zm176.988493 338.061917v80.51934c0 7.963979-6.223694 14.53965-14.175637 14.97733l-120 6.604889c-.274528.015111-.54942.02267-.824363.02267-8.284272 0-15.0005-6.715729-15.0005-14.999939v-82.151167c0-5.374138 4.247531-9.787321 9.617741-9.992752l130-4.973c5.668593-.216846 10.382759 4.31989 10.382759 9.992629zm-20.0005 10.389062-110.001 4.208v67.244l110.001-6.055zm-119.836099-218.979029 130 2.132372c5.458212.089473 9.836099 4.539712 9.836099 9.998657v170.459c0 5.374114-4.247555 9.787261-9.617741 9.992691l-130 4.973c-5.668617.216847-10.382259-4.319927-10.382259-9.992691v-177.563c0-5.400735 4.277592-9.788806 9.608773-9.993867l.276674-.006162zm119.836099 46.413196-103.551 130.512 103.551-3.960167zm-110-26.248167v132.711167l103.944-131.008zm-4.945205-132.936658.179205.003658h.029l.104167.001512.313652.01102 120 5.448157c8.011477.363732 14.319681 6.964834 14.319681 14.984628v78.453747c0 5.586942-4.57821 10.090163-10.164401 9.998593l-130-2.131c-5.458236-.089473-9.836099-4.539749-9.836099-9.998718v-81.855233c0-.092556.001786-.119773.004359-.255857l.003216-.113379.003859-.113358.004501-.113335c.35195-7.751965 6.527953-13.861817 14.110072-14.295354l.227993-.010423.112775-.006283.219225-.004717.057768-.00121.020232.00021.091089-.002658.090911.001658zm4.944205 20.231658v66.702l110.001 1.803v-63.51z"/></svg>